<svg xmlns="http://www.w3.org/2000/svg"
  data-name="Layer 1"
  viewBox="0 0 100 125"
  x="0px"
  y="0px">
  <title>add icon</title>
  <path
    d="M45.86,54.12a91.23,91.23,0,0,0,1.85,15.16h0c0,.2.83.35,1.77.35s1.71-.15,1.77-.35v0a91.54,91.54,0,0,0,1.83-15.11,91.09,91.09,0,0,0,15.16-1.84h0c.2-.06.35-.84.35-1.77s-.15-1.72-.35-1.77h0a90.75,90.75,0,0,0-15.11-1.84A92.26,92.26,0,0,0,51.2,31.73c0-.2-.79-.35-1.72-.35s-1.7.15-1.73.35v.05A91.87,91.87,0,0,0,45.87,46.9,92.36,92.36,0,0,0,30.7,48.78c-.19,0-.35.8-.35,1.73s.16,1.69.35,1.72h.05A91.78,91.78,0,0,0,45.86,54.12Z" />
</svg>