<svg xmlns="http://www.w3.org/2000/svg"
  data-name="Layer 1"
  viewBox="0 0 100 125"
  x="0px"
  y="0px">
  <title>Artboard 99</title>
  <path
    d="M50.24,42.43a9.8,9.8,0,0,1-10.43-8.17h0c-.07-.32-.86-.58-1.8-.59s-1.7.34-1.73.79v.12a13.84,13.84,0,0,0,3.94,9.94,14.52,14.52,0,0,0,10.33,4.36,15,15,0,0,0,10.7-4.4,15.26,15.26,0,0,0-.1-21.7,15,15,0,0,0-10.73-4.29A14.5,14.5,0,0,0,40.14,23a13.68,13.68,0,0,0-3.81,9.94c0,.45.75.79,1.68.78s1.71-.27,1.76-.59V33c.95-5.32,6-8.71,10.54-8.09a8.8,8.8,0,0,1-.08,17.53Z" />
  <path
    d="M97,92.55Q90.66,76.68,84,60.92L84,60.75A2,2,0,0,0,82,59.52l-9.79.41A56.13,56.13,0,0,0,77.48,49.1a43.93,43.93,0,0,0,2.19-13.56h0A1.74,1.74,0,0,0,78,33.67a2,2,0,0,0-1.88,1.72l0,.26c-1.3,16.19-13,29.62-26.08,38.09-8.73-5.7-16-13.51-20-23a51.26,51.26,0,0,1-4.21-15.68,24.34,24.34,0,0,1,3.64-14.51C34.69,11.65,46,7,56.26,9.39a25.79,25.79,0,0,1,13.49,8A26.31,26.31,0,0,1,76.2,32,1.86,1.86,0,0,0,78,33.67a1.73,1.73,0,0,0,1.63-1.9v-.3a29.77,29.77,0,0,0-6.4-17.37A30.35,30.35,0,0,0,57.48,3.71a31.05,31.05,0,0,0-39,32.06,56,56,0,0,0,4.84,18.06,49.77,49.77,0,0,0,3.19,6L18,59.47a2.07,2.07,0,0,0-2,1.27L16,60.9Q9.33,76.66,3,92.54a3.38,3.38,0,0,0-.23,1.11,3.2,3.2,0,0,0,3.12,3.26H6q44,1,88,0h.16a3.26,3.26,0,0,0,1.09-.22A3.16,3.16,0,0,0,97,92.55ZM10.56,90.36q4.61-13.24,9-26.55l8.75-.37h0a1.6,1.6,0,0,0,.43-.11A60.45,60.45,0,0,0,48.37,80.55l.18.1a3,3,0,0,0,3.11-.1A69.23,69.23,0,0,0,70.38,62.71a1.7,1.7,0,0,0,1.28.69h.25l8.53.36c3,8.89,6,17.76,9.06,26.62Q50,89.6,10.56,90.36Z" />
</svg>