<svg xmlns="http://www.w3.org/2000/svg"
  data-name="Layer 1"
  viewBox="0 0 100 125"
  x="0px"
  y="0px">
  <title>Artboard 131</title>
  <path
    d="M8.66,48.24h0c-.29.06-.51.83-.51,1.77s.22,1.71.51,1.77h.07A193.33,193.33,0,0,0,61.26,52,127.8,127.8,0,0,0,51.19,64.47h0c-.13.2.29.88,1,1.54s1.33,1.08,1.54,1l.05,0a127.29,127.29,0,0,0,17-14.3h0a3.7,3.7,0,0,0,0-5.24A128.21,128.21,0,0,0,53.66,33.08c-.19-.14-.86.27-1.51.93s-1.07,1.33-.93,1.51l0,0A125.89,125.89,0,0,0,61.28,48,193.59,193.59,0,0,0,8.66,48.24Z" />
  <path
    d="M91.67,86V83.24l0-3.71.12-29.69-.11-29.69,0-3.71a30.33,30.33,0,0,0-.19-4.27A11.41,11.41,0,0,0,80.35,2.63l-3.77,0-7.42.11-29.69.61-3.83.11A10.37,10.37,0,0,0,26,12.68a34.72,34.72,0,0,0,0,4l.11,3.71.24,7.42h0A2.08,2.08,0,0,0,28.15,30a2.09,2.09,0,0,0,1.77-2.21v-.34L30.16,20l.11-3.7A24.11,24.11,0,0,1,30.48,13a5.61,5.61,0,0,1,5.63-4.47l3.7.09,29.68.6,7.43.12c1.14,0,2.67,0,3.5.07a4.25,4.25,0,0,1,2,.64,4.54,4.54,0,0,1,2.16,3.41l0,.52v.92l0,1.86,0,3.71-.11,29.69.13,29.69,0,3.72c0,1.19.06,2.69,0,3.14a4.56,4.56,0,0,1-2.31,3.34,4.74,4.74,0,0,1-2,.56l-3.65.06-7.42.12-29.69.61-3.59.08a5.53,5.53,0,0,1-2.48-.6,5.74,5.74,0,0,1-3-4.13c-.14-.73-.11-2.27-.17-3.42l-.11-3.71-.24-7.42A2,2,0,0,0,28.15,70a2,2,0,0,0-1.73,2.21v.35L26.17,80l-.11,3.7a25.74,25.74,0,0,0,.05,4.08,10.28,10.28,0,0,0,5.34,7.51,10.45,10.45,0,0,0,4.64,1.23l3.72.1,29.69.61,7.42.12c1.33,0,2.27.06,3.91,0a11.07,11.07,0,0,0,5-1.47,11.43,11.43,0,0,0,5.7-8.53C91.63,86.92,91.64,86.48,91.67,86Z" />
</svg>