<svg xmlns="http://www.w3.org/2000/svg"
  data-name="Layer 1"
  viewBox="0 0 100 125"
  x="0px"
  y="0px">
  <title>Artboard 34</title>
  <path
    d="M91,88.17h0a2.65,2.65,0,0,0-.81,1.92,1.5,1.5,0,0,0,2.1,1.38l.31-.12A5.92,5.92,0,0,0,95.31,89a6.49,6.49,0,0,0,.89-3.35l.22-5,.39-10,.61-19.95.06-2.5,0-1.25a14.58,14.58,0,0,0,0-1.51A7.38,7.38,0,0,0,92,38.87a8.41,8.41,0,0,0-2.06-.24l-1.24,0-2.5,0-2.17,0,.32-11,0-1.52a5.94,5.94,0,0,0-.42-2.24,6.25,6.25,0,0,0-3.06-3.32,6.51,6.51,0,0,0-2.24-.62L77,19.73l-3-.07L52,19.18,45.11,8.34a3.14,3.14,0,0,0-2.58-1.45h-.09L18.13,6.58l-6.08,0H10.13l-.71,0a7.62,7.62,0,0,0-5.84,3.77,8.85,8.85,0,0,0-1,4.74l0,3,0,6.08q-.09,24.32.09,48.62l.11,12.15v1.14l0,.69a7.43,7.43,0,0,0,5,6.31,7.87,7.87,0,0,0,2.63.4l1.52,0,3,0L39.21,93q24.3-.47,48.59-1.22c1.33,0,2.38-.79,2.38-1.72s-1.05-1.69-2.38-1.72h-.37q-24.26-.75-48.5-1.21L28,87q.93-19.25,1.42-38.5l.06-2.4a.63.63,0,0,1,.19-.38A.64.64,0,0,1,30,45.5l1.5,0,10,.15,20,.13,20-.12,8.95-.12a.62.62,0,0,1,.49.51L91,51l.6,20,.4,10,.22,5A2.15,2.15,0,0,1,91,88.17ZM61.21,38.38l-20,.13-10,.16-1.38,0a7.29,7.29,0,0,0-2.25.47,7.31,7.31,0,0,0-4.72,7L23,48.7q.48,19.11,1.41,38.21l-9.72-.15-3,0-1.47,0a.37.37,0,0,1-.21-.06.55.55,0,0,1-.28-.32.6.6,0,0,1,0-.2l0-1.38.1-12.13q.2-24.25.09-48.52l0-6.07,0-3V14a.5.5,0,0,1,0-.13c-1.36-.38,4.65-.2,8.33-.3l22.58-.29,7.08,10.4.08.11A2.81,2.81,0,0,0,50.31,25l23.89-.52c4.86,0,6-.91,5.87,3.24l.31,10.73Z" />
</svg>