<svg xmlns="http://www.w3.org/2000/svg"
  data-name="Layer 1"
  viewBox="0 0 100 125"
  x="0px"
  y="0px">
  <title>Artboard 9</title>
  <path
    d="M2.8,14.3a58.67,58.67,0,0,0,1.48,7.42c0,.16.79.28,1.72.28s1.69-.12,1.72-.28v0a59,59,0,0,0,1.48-7.42c.17-1.24.29-2.47.37-3.71,0-.88.08-.51.12-.65l.1-.11.1-.09c.11,0-.18-.07.69-.11,1.24-.08,2.48-.2,3.71-.36a58.58,58.58,0,0,0,7.42-1.46h0c.16-.06.28-.83.28-1.77s-.12-1.71-.28-1.77h0a58.54,58.54,0,0,0-7.42-1.45c-1.24-.16-2.47-.28-3.71-.36a7.73,7.73,0,0,0-3,.32,7.38,7.38,0,0,0-3,1.85,7.55,7.55,0,0,0-1.81,3,7.82,7.82,0,0,0-.29,3C2.51,11.83,2.63,13.07,2.8,14.3Z" />
  <path
    d="M4.58,95.48a7.55,7.55,0,0,0,3,1.81,7.82,7.82,0,0,0,3,.29c1.24-.09,2.48-.21,3.71-.38a58.67,58.67,0,0,0,7.42-1.48c.16,0,.28-.79.28-1.72s-.12-1.69-.28-1.72h0a59,59,0,0,0-7.42-1.48c-1.24-.16-2.47-.29-3.71-.37-.88,0-.51-.08-.65-.12l-.11-.1-.09-.1c0-.11-.07.18-.11-.69-.08-1.24-.2-2.48-.36-3.71a58.58,58.58,0,0,0-1.46-7.42h0C7.71,78.12,6.94,78,6,78s-1.71.12-1.77.28v0a58.54,58.54,0,0,0-1.45,7.42c-.16,1.24-.28,2.47-.36,3.71a7.73,7.73,0,0,0,.32,3A7.38,7.38,0,0,0,4.58,95.48Z" />
  <path
    d="M95.48,95.42a7.55,7.55,0,0,0,1.81-3,7.82,7.82,0,0,0,.29-3c-.09-1.24-.21-2.48-.38-3.71a58.67,58.67,0,0,0-1.48-7.42c0-.16-.79-.28-1.72-.28s-1.69.12-1.72.28v0a59,59,0,0,0-1.48,7.42c-.17,1.24-.29,2.47-.37,3.71,0,.88-.08.51-.12.65l-.1.11-.1.09c-.11,0,.18.07-.69.11-1.24.08-2.48.2-3.71.36a58.58,58.58,0,0,0-7.42,1.46h0c-.16.06-.28.83-.28,1.77s.12,1.71.28,1.77h0a58.54,58.54,0,0,0,7.42,1.45c1.24.16,2.47.28,3.71.36a7.73,7.73,0,0,0,3-.32A7.38,7.38,0,0,0,95.48,95.42Z" />
  <path
    d="M89.41,2.42c-1.24.08-2.48.21-3.71.37a60.53,60.53,0,0,0-7.42,1.49c-.16,0-.28.79-.28,1.72s.12,1.69.28,1.72h0a59,59,0,0,0,7.42,1.48c1.24.17,2.47.29,3.71.37.88,0,.51.08.65.12l.11.1.09.1c0,.11.07-.18.11.69.08,1.24.2,2.48.36,3.71a58.58,58.58,0,0,0,1.46,7.42h0c.06.16.83.28,1.77.28s1.71-.12,1.77-.28v0a58.54,58.54,0,0,0,1.45-7.42c.16-1.24.28-2.47.36-3.71a7.73,7.73,0,0,0-.32-3,7.38,7.38,0,0,0-1.85-3,7.55,7.55,0,0,0-3-1.81A7.82,7.82,0,0,0,89.41,2.42Z" />
  <path
    d="M28.31,69.38c0,.35.76.62,1.69.62s1.7-.24,1.75-.52l0-.09a18.41,18.41,0,0,1,36.43.09h0c.08.29.86.52,1.8.52s1.7-.27,1.74-.62v-.1a20.93,20.93,0,0,0-5.62-16,21.23,21.23,0,0,0-6.22-4.63,13.73,13.73,0,0,0,3.78-9.89c0-.44-.76-.79-1.69-.78s-1.71.27-1.76.59v.09a10,10,0,0,1-7.18,7.85,21.47,21.47,0,0,0-3.1-.24c-.68,0-1.37.05-2,.11a8.79,8.79,0,0,1,1.86-17.16A9.81,9.81,0,0,1,60.2,37.41h0c.07.32.86.58,1.8.59s1.7-.33,1.73-.79v-.12a13.8,13.8,0,0,0-3.94-9.93,14.51,14.51,0,0,0-10.33-4.37,15,15,0,0,0-10.7,4.41,15.25,15.25,0,0,0,.1,21.69,3.76,3.76,0,0,0,.31.25,21.35,21.35,0,0,0-5.37,4.25A20.89,20.89,0,0,0,28.31,69.38Z" />
</svg>